<?xml version="1.0" encoding="UTF-8"?>
<svg xmlns="http://www.w3.org/2000/svg" xmlns:xlink="http://www.w3.org/1999/xlink" width="100pt" height="100pt" viewBox="0 0 100 100" version="1.1">
<defs>
<linearGradient id="linear0" gradientUnits="userSpaceOnUse" x1="149.99" y1="119.24" x2="234.01" y2="264.76" >
<stop offset="0" style="stop-color:rgb(98.431373%,74.901961%,14.117647%);stop-opacity:1;"/>
<stop offset="0.45" style="stop-color:rgb(98.431373%,74.901961%,14.117647%);stop-opacity:1;"/>
<stop offset="1" style="stop-color:rgb(96.078431%,61.960784%,4.313725%);stop-opacity:1;"/>
</linearGradient>
<clipPath id="clip1">
  <path d="M 12.5 12.5 L 87.5 12.5 L 87.5 87.5 L 12.5 87.5 Z M 12.5 12.5 "/>
</clipPath>
</defs>
<g id="surface1">
<path style="fill-rule:nonzero;fill:url(#linear0);stroke-width:6;stroke-linecap:butt;stroke-linejoin:miter;stroke:rgb(97.254902%,68.627451%,9.411765%);stroke-opacity:1;stroke-miterlimit:10;" d="M 276 192 C 276 238.4 238.4 276 192 276 C 145.6 276 108 238.4 108 192 C 108 145.6 145.6 108 192 108 C 238.4 108 276 145.6 276 192 Z M 276 192 " transform="matrix(0.195312,0,0,0.195312,12.5,12.5)"/>
<g clip-path="url(#clip1)" clip-rule="nonzero">
<path style="fill:none;stroke-width:24;stroke-linecap:round;stroke-linejoin:miter;stroke:rgb(98.431373%,74.901961%,14.117647%);stroke-opacity:1;stroke-miterlimit:10;" d="M 192 61.66 L 192 12 M 192 372 L 192 322.34 M 284.16 99.84 L 319.28 64.72 M 64.72 319.28 L 99.84 284.16 M 99.84 99.82 L 64.72 64.72 M 319.28 319.28 L 284.16 284.16 M 61.66 192 L 12 192 M 372 192 L 322.34 192 " transform="matrix(0.195312,0,0,0.195312,12.5,12.5)"/>
</g>
</g>
</svg>
