<?xml version="1.0" encoding="UTF-8"?>
<svg xmlns="http://www.w3.org/2000/svg" xmlns:xlink="http://www.w3.org/1999/xlink" width="24px" height="24px" viewBox="0 0 24 24" version="1.1">
<defs>
<linearGradient id="linear0" gradientUnits="userSpaceOnUse" x1="149.99" y1="119.24" x2="234.01" y2="264.76" >
<stop offset="0" style="stop-color:rgb(98.431373%,74.901961%,14.117647%);stop-opacity:1;"/>
<stop offset="0.45" style="stop-color:rgb(98.431373%,74.901961%,14.117647%);stop-opacity:1;"/>
<stop offset="1" style="stop-color:rgb(96.078431%,61.960784%,4.313725%);stop-opacity:1;"/>
</linearGradient>
<clipPath id="clip1">
  <path d="M 3 3 L 21 3 L 21 21 L 3 21 Z M 3 3 "/>
</clipPath>
</defs>
<g id="surface1">
<path style="fill-rule:nonzero;fill:url(#linear0);stroke-width:6;stroke-linecap:butt;stroke-linejoin:miter;stroke:rgb(97.254902%,68.627451%,9.411765%);stroke-opacity:1;stroke-miterlimit:10;" d="M 276 192 C 276 238.416667 238.416667 276 192 276 C 145.583333 276 108 238.416667 108 192 C 108 145.583333 145.583333 108 192 108 C 238.416667 108 276 145.583333 276 192 Z M 276 192 " transform="matrix(0.046875,0,0,0.046875,3,3)"/>
<g clip-path="url(#clip1)" clip-rule="nonzero">
<path style="fill:none;stroke-width:24;stroke-linecap:round;stroke-linejoin:miter;stroke:rgb(98.431373%,74.901961%,14.117647%);stroke-opacity:1;stroke-miterlimit:10;" d="M 192 61.666667 L 192 12 M 192 372 L 192 322.333333 M 284.166667 99.833333 L 319.25 64.75 M 64.75 319.25 L 99.833333 284.166667 M 99.833333 99.833333 L 64.75 64.75 M 319.25 319.25 L 284.166667 284.166667 M 61.666667 192 L 12 192 M 372 192 L 322.333333 192 " transform="matrix(0.046875,0,0,0.046875,3,3)"/>
</g>
</g>
</svg>
