<?xml version="1.0" encoding="UTF-8"?>
<svg xmlns="http://www.w3.org/2000/svg" xmlns:xlink="http://www.w3.org/1999/xlink" width="30pt" height="30pt" viewBox="0 0 30 30" version="1.1">
<defs>
<linearGradient id="linear0" gradientUnits="userSpaceOnUse" x1="149.99" y1="119.24" x2="234.01" y2="264.76" >
<stop offset="0" style="stop-color:rgb(98.431373%,74.901961%,14.117647%);stop-opacity:1;"/>
<stop offset="0.45" style="stop-color:rgb(98.431373%,74.901961%,14.117647%);stop-opacity:1;"/>
<stop offset="1" style="stop-color:rgb(96.078431%,61.960784%,4.313725%);stop-opacity:1;"/>
</linearGradient>
<clipPath id="clip1">
  <path d="M 3.75 3.75 L 26.25 3.75 L 26.25 26.25 L 3.75 26.25 Z M 3.75 3.75 "/>
</clipPath>
</defs>
<g id="surface1">
<path style="fill-rule:nonzero;fill:url(#linear0);stroke-width:6;stroke-linecap:butt;stroke-linejoin:miter;stroke:rgb(97.254902%,68.627451%,9.411765%);stroke-opacity:1;stroke-miterlimit:10;" d="M 276 192 C 276 238.4 238.4 276 192 276 C 145.6 276 108 238.4 108 192 C 108 145.6 145.6 108 192 108 C 238.4 108 276 145.6 276 192 Z M 276 192 " transform="matrix(0.0585938,0,0,0.0585938,3.75,3.75)"/>
<g clip-path="url(#clip1)" clip-rule="nonzero">
<path style="fill:none;stroke-width:24;stroke-linecap:round;stroke-linejoin:miter;stroke:rgb(98.431373%,74.901961%,14.117647%);stroke-opacity:1;stroke-miterlimit:10;" d="M 192 61.666667 L 192 12 M 192 372 L 192 322.333333 M 284.2 99.8 L 319.266667 64.733333 M 64.733333 319.266667 L 99.8 284.2 M 99.8 99.8 L 64.733333 64.733333 M 319.266667 319.266667 L 284.2 284.2 M 61.666667 192 L 12 192 M 372 192 L 322.333333 192 " transform="matrix(0.0585938,0,0,0.0585938,3.75,3.75)"/>
</g>
</g>
</svg>
