<?xml version="1.0" encoding="UTF-8"?>
<svg xmlns="http://www.w3.org/2000/svg" xmlns:xlink="http://www.w3.org/1999/xlink" width="128pt" height="128pt" viewBox="0 0 128 128" version="1.1">
<defs>
<linearGradient id="linear0" gradientUnits="userSpaceOnUse" x1="149.99" y1="119.24" x2="234.01" y2="264.76" >
<stop offset="0" style="stop-color:rgb(98.431373%,74.901961%,14.117647%);stop-opacity:1;"/>
<stop offset="0.45" style="stop-color:rgb(98.431373%,74.901961%,14.117647%);stop-opacity:1;"/>
<stop offset="1" style="stop-color:rgb(96.078431%,61.960784%,4.313725%);stop-opacity:1;"/>
</linearGradient>
<clipPath id="clip1">
  <path d="M 16 16 L 112 16 L 112 112 L 16 112 Z M 16 16 "/>
</clipPath>
</defs>
<g id="surface1">
<path style="fill-rule:nonzero;fill:url(#linear0);stroke-width:6;stroke-linecap:butt;stroke-linejoin:miter;stroke:rgb(97.254902%,68.627451%,9.411765%);stroke-opacity:1;stroke-miterlimit:10;" d="M 276 192 C 276 238.390625 238.390625 276 192 276 C 145.609375 276 108 238.390625 108 192 C 108 145.609375 145.609375 108 192 108 C 238.390625 108 276 145.609375 276 192 Z M 276 192 " transform="matrix(0.25,0,0,0.25,16,16)"/>
<g clip-path="url(#clip1)" clip-rule="nonzero">
<path style="fill:none;stroke-width:24;stroke-linecap:round;stroke-linejoin:miter;stroke:rgb(98.431373%,74.901961%,14.117647%);stroke-opacity:1;stroke-miterlimit:10;" d="M 192 61.65625 L 192 12 M 192 372 L 192 322.34375 M 284.171875 99.828125 L 319.28125 64.71875 M 64.71875 319.28125 L 99.828125 284.171875 M 99.828125 99.828125 L 64.71875 64.71875 M 319.28125 319.28125 L 284.171875 284.171875 M 61.65625 192 L 12 192 M 372 192 L 322.34375 192 " transform="matrix(0.25,0,0,0.25,16,16)"/>
</g>
</g>
</svg>
