<?xml version="1.0" encoding="UTF-8"?>
<svg xmlns="http://www.w3.org/2000/svg" xmlns:xlink="http://www.w3.org/1999/xlink" width="24px" height="24px" viewBox="0 0 24 24" version="1.1">
<defs>
<clipPath id="clip1">
  <path d="M 5.671875 5.671875 L 18.328125 5.671875 L 18.328125 18.328125 L 5.671875 18.328125 Z M 5.671875 5.671875 "/>
</clipPath>
<linearGradient id="linear0" gradientUnits="userSpaceOnUse" x1="54.33" y1="29.03" x2="187.18" y2="259.13" >
<stop offset="0" style="stop-color:rgb(52.54902%,76.470588%,85.882353%);stop-opacity:1;"/>
<stop offset="0.45" style="stop-color:rgb(52.54902%,76.470588%,85.882353%);stop-opacity:1;"/>
<stop offset="1" style="stop-color:rgb(36.862745%,68.627451%,81.176471%);stop-opacity:1;"/>
</linearGradient>
</defs>
<g id="surface1">
<g clip-path="url(#clip1)" clip-rule="nonzero">
<path style="fill-rule:nonzero;fill:url(#linear0);stroke-width:6;stroke-linecap:round;stroke-linejoin:round;stroke:rgb(44.705882%,72.54902%,83.529412%);stroke-opacity:1;stroke-miterlimit:4;" d="M 252.25 168.666667 C 178.166667 168.666667 118 109.333333 118 36.25 C 118.083333 25 119.583333 13.833333 122.5 3 C 55.25 10.25 3 66.333333 3 134.583333 C 3 207.75 63.083333 267 137.25 267 C 199.666667 267 252 224.833333 267 167.75 C 262.083333 168.333333 257.166667 168.583333 252.25 168.666667 Z M 252.25 168.666667 " transform="matrix(0.046875,0,0,0.046875,5.671875,5.671875)"/>
</g>
</g>
</svg>
