<?xml version="1.0" encoding="UTF-8"?>
<svg xmlns="http://www.w3.org/2000/svg" xmlns:xlink="http://www.w3.org/1999/xlink" width="24px" height="24px" viewBox="0 0 24 24" version="1.1">
<defs>
<radialGradient id="radial0" gradientUnits="userSpaceOnUse" cx="0" cy="0" fx="0" fy="0" r="1" gradientTransform="matrix(4.99999,10.5,-10.5,4.99999,9.5,9.75)">
<stop offset="0.016" style="stop-color:rgb(100%,73.333333%,16.078431%);stop-opacity:1;"/>
<stop offset="0.531" style="stop-color:rgb(98.823529%,69.803922%,14.117647%);stop-opacity:1;"/>
<stop offset="0.99" style="stop-color:rgb(89.411765%,44.313725%,0%);stop-opacity:1;"/>
</radialGradient>
</defs>
<g id="surface1">
<path style=" stroke:none;fill-rule:nonzero;fill:url(#radial0);" d="M 16.9375 3.378906 C 18.914062 3.515625 20.484375 5.085938 20.621094 7.0625 C 20.679688 7.925781 21.019531 8.746094 21.585938 9.398438 C 22.890625 10.886719 22.890625 13.113281 21.585938 14.601562 C 21.019531 15.253906 20.679688 16.074219 20.621094 16.9375 C 20.484375 18.914062 18.914062 20.484375 16.9375 20.621094 C 16.074219 20.679688 15.253906 21.019531 14.601562 21.585938 C 13.113281 22.890625 10.886719 22.890625 9.398438 21.585938 C 8.746094 21.019531 7.925781 20.679688 7.0625 20.621094 C 5.085938 20.484375 3.515625 18.914062 3.378906 16.9375 C 3.320312 16.074219 2.980469 15.253906 2.414062 14.601562 C 1.113281 13.113281 1.113281 10.886719 2.414062 9.398438 C 2.980469 8.746094 3.320312 7.925781 3.378906 7.0625 C 3.515625 5.085938 5.085938 3.515625 7.0625 3.378906 C 7.925781 3.320312 8.746094 2.980469 9.398438 2.414062 C 10.886719 1.109375 13.113281 1.109375 14.601562 2.414062 C 15.253906 2.980469 16.074219 3.320312 16.9375 3.378906 Z M 16.9375 3.378906 "/>
</g>
</svg>
