<?xml version="1.0" encoding="UTF-8"?>
<svg xmlns="http://www.w3.org/2000/svg" xmlns:xlink="http://www.w3.org/1999/xlink" width="px" height="px" viewBox="0 0 24 24" version="1.1">
<defs>
<linearGradient id="linear0" gradientUnits="userSpaceOnUse" x1="-0.348" y1="2" x2="29.405" y2="33.963" gradientTransform="matrix(0.5,0,0,0.5,0,0)">
<stop offset="0" style="stop-color:rgb(65.882353%,78.039216%,98.039216%);stop-opacity:1;"/>
<stop offset="0.461" style="stop-color:rgb(29.803922%,55.294118%,96.470588%);stop-opacity:1;"/>
</linearGradient>
<radialGradient id="radial0" gradientUnits="userSpaceOnUse" cx="0" cy="0" fx="0" fy="0" r="1" gradientTransform="matrix(-8.049992,-8.249997,19.828493,-19.347789,16.599388,21.125304)">
<stop offset="0" style="stop-color:rgb(62.745098%,62.745098%,62.745098%);stop-opacity:0.94902;"/>
<stop offset="0.38" style="stop-color:rgb(80%,80%,80%);stop-opacity:0.94902;"/>
<stop offset="1" style="stop-color:rgb(100%,100%,100%);stop-opacity:0.94902;"/>
</radialGradient>
</defs>
<g id="surface1">
<path style=" stroke:none;fill-rule:evenodd;fill:url(#linear0);" d="M 8.34375 1 C 7.304688 2.253906 6.683594 3.847656 6.683594 5.582031 C 6.683594 9.632812 10.078125 12.914062 14.265625 12.914062 C 14.34375 12.914062 14.421875 12.914062 14.5 12.914062 C 13.109375 14.589844 10.972656 15.667969 8.578125 15.667969 C 4.394531 15.667969 1 12.382812 1 8.332031 C 1 4.355469 4.265625 1.121094 8.34375 1 Z M 8.34375 1 "/>
<path style=" stroke:none;fill-rule:evenodd;fill:url(#radial0);" d="M 23.5 15.5 C 23.5 19.492188 20.253906 22.753906 16.164062 22.984375 L 16.164062 23 L 5.097656 23 L 5.097656 22.988281 C 2.53125 22.824219 0.5 20.773438 0.5 18.261719 C 0.5 15.648438 2.707031 13.527344 5.429688 13.527344 C 6.375 13.527344 7.253906 13.78125 8.003906 14.222656 C 8.636719 10.691406 11.839844 8 15.695312 8 C 20.007812 8 23.5 11.359375 23.5 15.5 Z M 23.5 15.5 "/>
</g>
</svg>
