<?xml version="1.0" encoding="UTF-8"?>
<svg xmlns="http://www.w3.org/2000/svg" xmlns:xlink="http://www.w3.org/1999/xlink" width="24px" height="24px" viewBox="0 0 24 24" version="1.1">
<defs>
<radialGradient id="radial0" gradientUnits="userSpaceOnUse" cx="0" cy="0" fx="0" fy="0" r="1" gradientTransform="matrix(5.550965,8.168303,-8.530486,5.797095,3.782202,4.331815)">
<stop offset="0.016" style="stop-color:rgb(100%,73.333333%,16.078431%);stop-opacity:1;"/>
<stop offset="0.393" style="stop-color:rgb(98.823529%,69.803922%,14.117647%);stop-opacity:1;"/>
<stop offset="0.967" style="stop-color:rgb(89.411765%,44.313725%,0%);stop-opacity:1;"/>
</radialGradient>
<linearGradient id="linear0" gradientUnits="userSpaceOnUse" x1="31.667" y1="46.1" x2="17.265" y2="21.977" gradientTransform="matrix(0.5,0,0,0.5,0,0)">
<stop offset="0.078" style="stop-color:rgb(62.745098%,62.745098%,62.745098%);stop-opacity:0.94902;"/>
<stop offset="0.349" style="stop-color:rgb(80%,80%,80%);stop-opacity:0.94902;"/>
<stop offset="1" style="stop-color:rgb(100%,100%,100%);stop-opacity:0.94902;"/>
</linearGradient>
</defs>
<g id="surface1">
<path style=" stroke:none;fill-rule:nonzero;fill:url(#radial0);" d="M 13.484375 2.660156 C 15.105469 2.734375 16.40625 4.03125 16.476562 5.65625 C 16.511719 6.363281 16.78125 7.039062 17.242188 7.570312 C 18.285156 8.773438 18.285156 10.566406 17.238281 11.757812 L 17.117188 11.898438 C 16.644531 12.4375 16.351562 13.113281 16.289062 13.828125 C 16.132812 15.488281 14.820312 16.800781 13.164062 16.953125 C 12.449219 17.019531 11.769531 17.308594 11.230469 17.78125 L 11.09375 17.90625 C 9.898438 18.953125 8.105469 18.953125 6.90625 17.910156 C 6.371094 17.445312 5.695312 17.175781 4.988281 17.144531 C 3.367188 17.070312 2.066406 15.773438 1.996094 14.152344 C 1.960938 13.445312 1.691406 12.769531 1.230469 12.234375 C 0.1875 11.035156 0.1875 9.242188 1.234375 8.046875 L 1.355469 7.910156 C 1.832031 7.367188 2.121094 6.691406 2.183594 5.976562 C 2.339844 4.320312 3.652344 3.007812 5.308594 2.851562 C 6.027344 2.789062 6.703125 2.496094 7.242188 2.023438 L 7.382812 1.902344 C 8.574219 0.851562 10.367188 0.855469 11.566406 1.894531 C 12.101562 2.359375 12.777344 2.628906 13.484375 2.660156 Z M 13.484375 2.660156 "/>
<path style=" stroke:none;fill-rule:evenodd;fill:url(#linear0);" d="M 23.5 13.75 C 23.5 17.929688 20.167969 21.335938 16 21.492188 L 16 21.5 L 5.429688 21.5 C 2.707031 21.5 0.5 19.308594 0.5 16.605469 C 0.5 13.902344 2.707031 11.710938 5.429688 11.710938 C 6.375 11.710938 7.253906 11.972656 8.003906 12.433594 C 8.636719 8.78125 11.839844 6 15.695312 6 C 20.007812 6 23.5 9.46875 23.5 13.75 Z M 23.5 13.75 "/>
</g>
</svg>
