<?xml version="1.0" encoding="UTF-8"?>
<svg xmlns="http://www.w3.org/2000/svg" xmlns:xlink="http://www.w3.org/1999/xlink" width="24px" height="24px" viewBox="0 0 24 24" version="1.1">
<defs>
<linearGradient id="linear0" gradientUnits="userSpaceOnUse" x1="-2.652" y1="1" x2="44.031" y2="50.749" gradientTransform="matrix(0.5,0,0,0.5,0,0)">
<stop offset="0" style="stop-color:rgb(65.882353%,78.039216%,98.039216%);stop-opacity:1;"/>
<stop offset="0.359" style="stop-color:rgb(29.803922%,55.294118%,96.470588%);stop-opacity:1;"/>
</linearGradient>
<radialGradient id="radial0" gradientUnits="userSpaceOnUse" cx="0" cy="0" fx="0" fy="0" r="1" gradientTransform="matrix(-8.049925,-8.525065,20.462125,-19.321675,16.6,21.5625)">
<stop offset="0" style="stop-color:rgb(62.745098%,62.745098%,62.745098%);stop-opacity:0.94902;"/>
<stop offset="0.38" style="stop-color:rgb(80%,80%,80%);stop-opacity:0.94902;"/>
<stop offset="1" style="stop-color:rgb(100%,100%,100%);stop-opacity:0.94902;"/>
</radialGradient>
</defs>
<g id="surface1">
<path style=" stroke:none;fill-rule:evenodd;fill:url(#linear0);" d="M 11.925781 0.5 C 10.308594 2.46875 9.34375 4.964844 9.34375 7.683594 C 9.34375 14.035156 14.621094 19.1875 21.132812 19.1875 C 21.257812 19.1875 21.378906 19.183594 21.5 19.179688 C 19.339844 21.8125 16.015625 23.5 12.289062 23.5 C 5.777344 23.5 0.5 18.351562 0.5 11.996094 C 0.5 5.765625 5.582031 0.6875 11.925781 0.5 Z M 11.925781 0.5 "/>
<path style=" stroke:none;fill-rule:evenodd;fill:url(#radial0);" d="M 23.5 15.75 C 23.5 19.929688 20.167969 23.335938 16 23.492188 L 16 23.5 L 5.429688 23.5 C 2.707031 23.5 0.5 21.308594 0.5 18.605469 C 0.5 15.902344 2.707031 13.710938 5.429688 13.710938 C 6.335938 13.707031 7.230469 13.957031 8.003906 14.433594 C 8.636719 10.78125 11.839844 8 15.695312 8 C 20.007812 8 23.5 11.46875 23.5 15.75 Z M 23.5 15.75 "/>
</g>
</svg>
