<?xml version="1.0" encoding="UTF-8"?>
<svg xmlns="http://www.w3.org/2000/svg" xmlns:xlink="http://www.w3.org/1999/xlink" width="24px" height="24px" viewBox="0 0 24 24" version="1.1">
<defs>
<radialGradient id="radial0" gradientUnits="userSpaceOnUse" cx="0" cy="0" fx="0" fy="0" r="1" gradientTransform="matrix(6.069112,8.655045,-8.650583,6.065983,5.181087,5.344948)">
<stop offset="0.016" style="stop-color:rgb(100%,73.333333%,16.078431%);stop-opacity:1;"/>
<stop offset="0.359" style="stop-color:rgb(98.823529%,69.803922%,14.117647%);stop-opacity:1;"/>
<stop offset="0.967" style="stop-color:rgb(89.411765%,44.313725%,0%);stop-opacity:1;"/>
</radialGradient>
<linearGradient id="linear0" gradientUnits="userSpaceOnUse" x1="33" y1="48.8" x2="20.059" y2="26.888" gradientTransform="matrix(0.5,0,0,0.5,0,0)">
<stop offset="0.078" style="stop-color:rgb(62.745098%,62.745098%,62.745098%);stop-opacity:0.94902;"/>
<stop offset="0.349" style="stop-color:rgb(80%,80%,80%);stop-opacity:0.94902;"/>
<stop offset="1" style="stop-color:rgb(100%,100%,100%);stop-opacity:0.94902;"/>
</linearGradient>
</defs>
<g id="surface1">
<path style=" stroke:none;fill-rule:nonzero;fill:url(#radial0);" d="M 16.996094 3.582031 C 18.996094 3.71875 20.585938 5.308594 20.722656 7.308594 C 20.78125 8.179688 21.125 9.011719 21.699219 9.667969 C 23.019531 11.179688 23.019531 13.429688 21.699219 14.9375 C 21.125 15.597656 20.78125 16.425781 20.722656 17.300781 C 20.585938 19.300781 18.996094 20.890625 16.996094 21.027344 C 16.125 21.085938 15.292969 21.429688 14.632812 22.003906 C 13.125 23.320312 10.875 23.320312 9.367188 22.003906 C 8.707031 21.429688 7.875 21.085938 7.003906 21.027344 C 5.003906 20.890625 3.414062 19.300781 3.277344 17.300781 C 3.21875 16.425781 2.875 15.597656 2.300781 14.9375 C 0.980469 13.429688 0.980469 11.179688 2.300781 9.667969 C 2.875 9.011719 3.21875 8.179688 3.277344 7.308594 C 3.414062 5.308594 5.003906 3.71875 7.003906 3.582031 C 7.875 3.523438 8.707031 3.179688 9.367188 2.601562 C 10.875 1.285156 13.125 1.285156 14.632812 2.601562 C 15.292969 3.179688 16.125 3.523438 16.996094 3.582031 Z M 16.996094 3.582031 "/>
<path style=" stroke:none;fill-rule:evenodd;fill:url(#linear0);" d="M 23.5 16 C 23.5 19.660156 20.640625 22.660156 17 22.972656 L 17 23 L 7 23 C 4.515625 23 2.5 21.019531 2.5 18.578125 C 2.5 16.136719 4.515625 14.15625 7 14.15625 C 7.863281 14.15625 8.667969 14.394531 9.351562 14.808594 C 9.929688 11.511719 12.851562 9 16.375 9 C 20.308594 9 23.5 12.132812 23.5 16 Z M 23.5 16 "/>
</g>
</svg>
