<svg version="1.1" id="Layer_1" xmlns="http://www.w3.org/2000/svg" xmlns:xlink="http://www.w3.org/1999/xlink" x="0px" y="0px"
	 width="100%" viewBox="0 0 416 416" enable-background="new 0 0 416 416" xml:space="preserve">
<path fill="#000000" opacity="1.000000" stroke="none" 
	d="
M1.000000,164.000000 
	C1.000000,109.349602 1.000000,55.199200 1.000000,1.024398 
	C139.608765,1.024398 278.217529,1.024398 416.913147,1.024398 
	C416.913147,139.567062 416.913147,278.134216 416.913147,416.850677 
	C278.333466,416.850677 139.666748,416.850677 1.000000,416.850677 
	C1.000000,332.782471 1.000000,248.641235 1.000000,164.000000 
M304.478943,35.141533 
	C282.663422,23.405672 259.722748,15.387120 234.982819,12.188498 
	C212.642761,9.300154 190.657059,10.055932 168.564178,14.219152 
	C144.894440,18.679516 123.046204,27.712233 102.732475,40.185135 
	C73.008224,58.436237 49.542332,82.904556 32.454418,113.530243 
	C20.167530,135.551315 11.952675,158.926743 8.637112,183.784302 
	C6.490617,199.877090 5.814058,216.090485 8.032822,232.495682 
	C10.672421,252.012482 14.896369,270.830780 22.723429,288.972565 
	C33.386261,313.687225 47.921829,335.473297 67.054237,354.530762 
	C85.964523,373.367035 107.943665,387.181213 132.193573,397.644836 
	C146.389526,403.770294 161.315277,407.387604 176.616714,409.959961 
	C194.684799,412.997498 212.820526,413.244598 230.782150,411.277679 
	C251.215897,409.040070 271.080017,403.856415 289.899658,394.888000 
	C310.003784,385.307495 328.651520,373.796539 344.960632,358.539520 
	C369.230133,335.835571 386.743317,308.765625 397.878601,277.516479 
	C403.187378,262.618439 405.999023,247.242554 408.149902,231.553055 
	C410.448334,214.787033 409.292572,198.300858 407.081116,181.860519 
	C404.982422,166.258194 400.876282,151.034958 394.635681,136.438919 
	C385.081757,114.093338 372.970795,93.361961 356.292419,75.583656 
	C341.318420,59.622128 324.618103,45.734020 304.478943,35.141533 
z"/>
<path fill="#000000" opacity="1.000000" stroke="none" 
	d="
M71.911346,229.336334 
	C62.557007,230.451859 54.029057,233.270447 45.372345,235.525436 
	C41.640312,236.497604 38.007149,237.099182 34.081226,235.280960 
	C35.304386,231.081375 38.885212,229.792084 41.968227,229.034195 
	C51.942650,226.582169 62.022305,224.488327 72.145477,222.744415 
	C76.413162,222.009232 78.403633,220.003311 78.558640,215.953918 
	C78.692383,212.459869 78.744934,208.948303 78.555977,205.459503 
	C78.225311,199.354401 75.824989,197.184875 69.579353,197.624832 
	C66.559341,197.837555 63.607246,197.807251 60.631767,197.405823 
	C59.050121,197.192459 56.995140,197.627884 56.760578,195.254623 
	C56.524605,192.867081 58.520294,192.983810 60.105820,192.489883 
	C64.364532,191.163239 68.709633,191.699631 73.016754,191.715652 
	C76.356369,191.728073 78.032837,190.576233 78.854301,187.073807 
	C81.095932,177.516220 78.027473,168.979538 73.028862,161.540848 
	C61.158199,143.875443 60.879482,125.101448 66.209404,105.632675 
	C70.113419,91.372353 76.730011,78.443573 86.498276,67.143898 
	C100.999077,50.369736 118.334053,55.057449 129.601669,69.384079 
	C131.143188,71.344101 132.448334,73.495178 134.044861,75.405769 
	C137.934082,80.060104 141.168854,80.912308 146.851761,78.948906 
	C175.563721,69.029121 204.965439,67.653831 234.909836,71.245178 
	C245.050323,72.461372 254.878235,74.679108 264.352570,78.148720 
	C269.514648,80.039131 272.685333,78.588440 275.540833,74.773384 
	C278.675171,70.585785 282.523651,67.178741 286.692078,64.100067 
	C299.574310,54.585682 314.816437,55.264568 325.895996,66.874001 
	C340.913879,82.610077 350.095154,101.108582 348.247803,123.534821 
	C347.294861,135.103256 341.488251,144.956223 335.128296,154.375610 
	C327.791260,165.242065 322.908661,176.681900 324.180573,190.281937 
	C324.614746,194.924500 325.786499,197.174210 330.640381,196.652008 
	C332.788300,196.420929 334.976929,196.274734 337.124908,196.419312 
	C339.317963,196.566910 341.865631,195.879150 343.508881,198.280228 
	C342.504303,201.451828 339.900909,201.397476 337.423859,201.357635 
	C322.408264,201.116150 324.467163,201.797943 324.382690,214.912445 
	C324.320007,224.647919 324.417725,224.473740 334.234100,226.887161 
	C339.701019,228.231232 345.070312,230.077759 350.337799,232.081177 
	C352.831360,233.029602 355.512756,234.257782 356.996155,237.643646 
	C351.634674,239.134415 347.269958,236.624344 342.808075,235.512161 
	C338.152496,234.351700 333.690521,232.569122 328.840118,231.975769 
	C325.845490,231.609436 324.256073,232.574753 323.657806,235.188812 
	C320.513336,248.928131 317.215424,262.640900 314.508667,276.468170 
	C313.176666,283.272461 315.496765,290.064423 317.041168,296.629730 
	C321.037354,313.617676 323.973206,330.724579 325.423767,348.119812 
	C325.950104,354.432068 326.463837,360.715363 326.382660,367.053070 
	C326.346008,369.911499 325.303467,371.176300 322.293701,371.394958 
	C310.714417,372.236145 311.223663,372.290436 310.508545,360.751312 
	C309.451599,343.696106 307.776215,326.692261 303.433044,310.032776 
	C301.266205,301.721283 299.252411,293.327454 298.568451,284.665588 
	C297.632202,272.808899 302.556854,262.245972 305.344910,251.202713 
	C306.886200,245.097580 308.415527,238.988953 309.880646,232.865234 
	C310.894104,228.629196 307.281677,227.698151 304.862213,227.683365 
	C293.847778,227.616074 283.044769,224.855835 272.007690,225.379745 
	C266.520111,225.640244 262.832550,228.792770 259.501038,232.708893 
	C251.434875,242.190521 241.466003,248.303085 228.912720,249.756653 
	C228.086502,249.852325 227.193222,250.227661 226.447266,250.031433 
	C210.182037,245.752762 194.013229,251.238342 177.772079,250.479706 
	C166.082382,249.933670 153.904587,242.094406 149.815720,231.115906 
	C148.208145,226.799667 145.864197,225.430466 141.376740,225.229889 
	C128.040024,224.633774 114.730202,225.168198 101.411545,225.431000 
	C94.676529,225.563889 93.662086,227.378830 95.291344,233.771042 
	C98.381065,245.893234 102.933960,257.350098 108.867706,268.372131 
	C115.344284,280.402527 113.966202,292.956360 110.733215,305.707092 
	C108.701698,313.719330 107.751862,322.016083 107.375275,330.322876 
	C106.825249,342.455353 105.041550,354.507996 105.048111,366.677277 
	C105.050026,370.235321 103.235855,371.516205 99.669044,371.446838 
	C88.104263,371.221832 89.484062,372.207611 89.700111,361.615814 
	C90.022057,345.832153 91.102036,330.082916 93.339050,314.427856 
	C94.277794,307.858337 94.958038,301.247620 95.593918,294.640045 
	C96.606316,284.119904 94.323067,274.290314 89.933144,264.671906 
	C85.525909,255.015579 82.419731,244.807419 80.423248,234.371841 
	C79.440102,229.232956 77.243973,227.469147 71.911346,229.336334 
M192.881195,81.410423 
	C175.769821,82.817459 159.050507,85.874092 143.023148,92.361778 
	C134.588425,95.776047 133.713913,95.311279 128.907898,87.689751 
	C124.738129,81.077232 119.532578,75.575462 112.556946,71.962975 
	C104.988075,68.043259 97.973991,69.900520 94.135010,77.047501 
	C100.600288,73.299240 106.835388,69.528229 113.698296,74.936478 
	C118.681656,78.863564 120.536934,84.207848 120.638824,90.665062 
	C115.712372,90.488869 114.902405,86.748734 113.107536,84.174622 
	C109.832314,79.477470 105.487114,78.373077 101.265747,81.925659 
	C92.341255,89.436241 87.594543,99.204552 86.317986,110.805183 
	C85.517197,118.082268 89.956238,123.351280 92.718491,129.297409 
	C94.028831,132.118118 96.244041,135.910721 92.688416,137.652634 
	C89.363838,139.281372 87.249290,135.585785 85.762619,132.717117 
	C82.839226,127.076149 80.168823,121.323036 78.759888,114.756462 
	C78.093552,115.438492 77.777313,115.629684 77.664795,115.904327 
	C77.413986,116.516510 77.174454,117.158348 77.087830,117.809059 
	C75.372208,130.695648 78.261353,142.606903 85.304405,153.393463 
	C89.178062,159.326035 92.831932,165.096924 92.401649,172.595016 
	C92.125145,177.413300 92.399902,182.261566 92.184387,187.085526 
	C92.009499,191.000320 93.759529,192.913467 97.521812,193.471909 
	C105.232094,194.616440 112.976997,195.615082 120.615524,197.136383 
	C134.266220,199.855087 147.838120,202.980606 161.207886,206.871902 
	C164.991318,207.973083 169.073425,208.665771 172.149841,211.447617 
	C173.182526,212.381439 174.730225,213.444153 174.034515,215.201126 
	C173.296524,217.064865 171.450577,216.558853 170.100433,216.314651 
	C167.338638,215.815155 164.558060,215.199753 161.924164,214.247665 
	C141.387741,206.824203 120.115356,202.580627 98.581909,199.464523 
	C94.637962,198.893799 92.028854,200.117386 92.337906,204.812347 
	C92.523590,207.633286 92.494179,210.481720 92.355148,213.307663 
	C92.126877,217.947296 93.970909,220.206787 98.837425,219.661377 
	C113.449974,218.023666 128.125031,218.764801 142.776138,218.631470 
	C145.389832,218.607697 147.382217,218.094772 147.691147,214.989456 
	C147.872742,213.164383 149.229218,212.551971 150.894836,212.514542 
	C152.208069,212.485031 153.276764,213.032333 153.475693,214.371994 
	C154.286697,219.833527 158.239914,219.929398 162.449387,219.901642 
	C164.426086,219.888611 166.405487,220.334854 168.384201,220.568497 
	C170.143234,220.776245 171.939743,221.293655 171.925095,223.346893 
	C171.908066,225.732819 169.740570,225.987839 167.947845,226.264252 
	C165.432037,226.652161 163.003784,225.856247 160.532791,225.560226 
	C157.136963,225.153412 155.682663,226.754593 157.266830,230.023071 
	C158.047348,231.633438 159.168442,233.227066 160.513809,234.390823 
	C168.219193,241.056152 177.199188,243.850449 187.315994,242.434998 
	C190.790665,241.948853 194.088043,240.709213 196.589005,237.979034 
	C198.592834,235.791534 198.739960,234.042328 195.784180,232.478607 
	C192.705032,230.849609 189.593079,229.187515 186.804794,227.122299 
	C179.527374,221.732010 179.813278,212.481445 187.786026,208.330399 
	C199.132416,202.422836 210.939133,202.632782 222.172165,208.696121 
	C230.795303,213.350693 230.519806,224.339355 222.019211,229.252014 
	C219.433731,230.746216 216.633591,231.868683 214.046204,233.359940 
	C211.056290,235.083145 211.071838,237.249649 213.837372,239.152420 
	C215.316116,240.169830 217.079926,241.290131 218.772156,241.389160 
	C225.566177,241.786835 232.512497,242.565140 238.934265,239.487900 
	C244.797791,236.678177 250.387787,233.378723 255.028687,227.701416 
	C250.674896,226.844193 247.430801,227.777176 244.150330,227.975845 
	C242.537704,228.073532 240.640137,227.807602 240.038559,225.880234 
	C239.389923,223.802094 241.041702,222.965652 242.515366,222.111816 
	C244.285782,221.086044 246.145615,220.536789 248.221069,220.583527 
	C251.218903,220.651062 254.223938,220.690338 257.218079,220.560913 
	C261.515533,220.375183 262.593170,219.110550 262.739624,214.089584 
	C257.718323,215.513504 252.836121,217.026382 247.880890,218.241379 
	C245.832092,218.743729 243.068741,219.176071 242.218063,216.614975 
	C241.467712,214.355911 243.848450,213.363739 245.559494,212.360001 
	C250.968369,209.187027 257.044312,207.868774 263.044983,206.804306 
	C277.409821,204.256134 291.789978,201.827682 306.080780,198.861664 
	C309.322052,198.188965 310.334534,196.873657 310.850525,193.737320 
	C311.912872,187.280014 311.035278,180.741699 312.120331,174.322098 
	C313.797302,164.400558 318.790771,156.017548 324.239502,147.790573 
	C329.278473,140.182220 334.480835,132.569916 335.618866,123.156136 
	C337.960114,103.788971 329.001526,88.611870 316.871246,75.021187 
	C307.712708,64.760033 297.210815,66.288757 289.511566,78.146675 
	C302.183746,71.586617 308.039642,72.727959 317.708588,83.622505 
	C321.829651,88.265953 325.295593,93.376083 327.450745,99.184425 
	C331.260376,109.451675 331.275757,119.695206 325.947083,129.524185 
	C324.780518,131.675903 322.876923,134.291122 320.086426,133.046356 
	C317.123749,131.724777 318.986725,128.908813 319.729553,126.930222 
	C324.874512,113.225929 320.972168,101.194130 313.038483,89.916603 
	C311.912445,88.315956 310.288788,87.029976 308.769470,85.747635 
	C302.688171,80.614967 297.770264,80.996117 292.182617,86.692940 
	C289.695404,89.228752 287.921722,93.350800 283.250397,91.967987 
	C281.780212,89.255051 284.184265,87.354637 284.104523,83.949852 
	C282.885895,85.532814 282.267181,86.502037 281.489655,87.320366 
	C275.068665,94.078423 273.912048,94.228210 264.967865,90.801704 
	C260.634308,89.141533 256.211639,87.633171 251.720642,86.478798 
	C232.715179,81.593567 213.372131,80.262962 192.881195,81.410423 
M279.981140,209.528168 
	C277.909698,210.126984 275.872131,210.952072 273.758392,211.268677 
	C270.970001,211.686356 268.253235,211.945496 268.455200,215.708374 
	C268.654572,219.423035 271.454590,219.329544 274.195251,219.707611 
	C283.926544,221.050034 293.781281,220.040314 303.516571,221.498337 
	C309.020538,222.322662 310.555481,220.617752 310.620026,214.896439 
	C310.633148,213.732895 310.503571,212.554749 310.642578,211.407913 
	C311.240021,206.478973 309.032013,204.896240 304.262970,205.323364 
	C296.317230,206.035019 288.636444,208.099701 279.981140,209.528168 
z"/>
<path fill="#000000" opacity="1.000000" stroke="none" 
	d="
M146.023834,156.393982 
	C153.877869,154.862793 162.993866,160.244156 168.090714,169.024277 
	C171.443832,174.800552 171.085876,178.351959 166.536057,183.452698 
	C162.935455,187.489258 158.854568,190.620178 153.310669,191.784943 
	C144.507919,193.634384 138.132278,189.557419 136.643814,180.693497 
	C134.610672,168.585922 137.225861,161.593613 146.023834,156.393982 
z"/>
<path fill="#000000" opacity="1.000000" stroke="none" 
	d="
M238.789276,171.709076 
	C237.756485,163.387589 251.022659,152.481140 258.720673,151.716614 
	C264.061768,151.186172 269.738068,155.665176 270.166077,161.383514 
	C270.645813,167.793335 271.107086,174.286438 268.337372,180.527496 
	C265.000122,188.047455 259.666016,190.276855 252.372101,186.602081 
	C246.110840,183.447571 240.961639,179.175980 238.789276,171.709076 
z"/>
</svg>