<?xml version="1.0" standalone="no"?>
<!DOCTYPE svg PUBLIC "-//W3C//DTD SVG 20010904//EN"
 "http://www.w3.org/TR/2001/REC-SVG-20010904/DTD/svg10.dtd">
<svg version="1.0" xmlns="http://www.w3.org/2000/svg"
 width="416.000000pt" height="416.000000pt" viewBox="0 0 416.000000 416.000000"
 preserveAspectRatio="xMidYMid meet">

<g transform="translate(0.000000,416.000000) scale(0.100000,-0.100000)"
fill="#000000" stroke="none">
<path d="M1910 4094 c-88 -6 -242 -31 -335 -55 -22 -6 -58 -15 -80 -21 -48
-12 -91 -26 -125 -40 -14 -6 -38 -16 -55 -23 -71 -29 -325 -159 -325 -167 0
-4 -5 -8 -11 -8 -10 0 -98 -56 -109 -70 -3 -3 -21 -17 -40 -30 -55 -38 -87
-67 -200 -180 -114 -114 -152 -156 -190 -210 -13 -19 -30 -41 -37 -48 -7 -7
-13 -17 -13 -22 0 -5 -6 -15 -13 -22 -16 -16 -97 -157 -97 -168 0 -5 -3 -10
-7 -12 -5 -1 -19 -25 -32 -53 -13 -27 -27 -57 -32 -65 -5 -8 -12 -22 -15 -30
-3 -8 -12 -28 -19 -45 -23 -53 -68 -196 -94 -302 -65 -264 -70 -597 -12 -878
19 -91 48 -199 71 -260 12 -33 24 -69 28 -80 20 -72 242 -461 281 -495 3 -3
24 -27 45 -53 107 -134 343 -344 464 -414 26 -15 49 -30 52 -33 27 -29 347
-177 435 -201 222 -59 252 -65 425 -84 157 -18 243 -18 400 0 173 19 203 25
425 84 88 24 408 172 435 201 3 3 26 18 52 33 120 69 359 283 466 416 20 25
40 48 43 51 39 34 259 420 281 495 4 11 16 47 28 80 38 101 70 241 96 404 17
111 19 409 4 514 -32 216 -87 418 -152 557 -65 139 -73 155 -80 158 -5 2 -8 7
-8 12 0 11 -81 152 -97 168 -7 7 -13 17 -13 22 0 5 -6 15 -13 22 -7 7 -24 29
-37 48 -37 53 -75 95 -190 210 -113 113 -145 142 -200 180 -19 13 -37 27 -40
30 -11 14 -99 70 -109 70 -6 0 -11 4 -11 8 0 8 -254 138 -325 167 -16 7 -41
17 -55 23 -66 29 -218 67 -386 97 -81 15 -369 26 -474 19z m403 -34 c148 -22
317 -60 396 -90 25 -10 69 -26 96 -36 56 -21 237 -110 305 -150 139 -81 233
-157 380 -304 120 -120 149 -151 190 -210 13 -19 30 -41 37 -48 11 -12 50 -74
115 -187 20 -35 58 -114 83 -170 9 -22 25 -58 36 -80 51 -112 104 -333 125
-525 17 -161 17 -256 -1 -410 -27 -226 -60 -361 -133 -540 -51 -125 -162 -336
-210 -395 -4 -5 -18 -26 -32 -45 -13 -19 -27 -37 -30 -40 -3 -3 -18 -23 -35
-45 -39 -53 -238 -251 -295 -295 -25 -19 -47 -37 -50 -41 -9 -11 -154 -105
-200 -130 -25 -13 -47 -26 -50 -29 -10 -10 -133 -70 -144 -70 -7 0 -17 -5 -23
-11 -15 -15 -196 -81 -273 -100 -227 -54 -294 -62 -530 -62 -236 0 -303 8
-530 62 -77 19 -258 85 -273 100 -6 6 -16 11 -23 11 -11 0 -134 60 -144 70 -3
3 -18 12 -35 20 -31 15 -206 129 -215 139 -3 4 -25 22 -50 41 -57 44 -256 242
-295 295 -17 22 -32 42 -35 45 -3 3 -17 21 -30 40 -14 19 -28 40 -32 45 -90
112 -233 422 -286 620 -39 145 -71 377 -72 515 0 173 41 439 94 605 14 44 26
83 26 88 0 12 107 238 138 292 65 113 104 175 115 187 7 7 24 29 37 48 13 19
27 37 30 40 3 3 30 34 60 70 30 36 58 68 62 71 5 3 41 36 81 75 99 94 136 124
253 203 101 68 293 169 389 205 28 10 71 26 96 36 74 28 247 68 384 88 85 13
413 14 498 2z"/>
<path d="M978 3587 c-16 -6 -28 -14 -28 -19 0 -4 -6 -8 -12 -8 -19 0 -98 -86
-146 -157 -106 -157 -162 -335 -162 -515 0 -61 5 -128 11 -147 11 -37 69 -162
79 -171 13 -12 50 -99 61 -143 13 -54 8 -152 -9 -169 -6 -6 -50 -12 -102 -13
-50 -1 -96 -7 -102 -13 -22 -22 5 -32 92 -32 118 0 120 -2 120 -135 0 -112 -1
-114 -59 -126 -20 -4 -58 -12 -86 -18 -27 -6 -90 -19 -140 -30 -88 -18 -156
-46 -159 -66 -2 -17 57 -17 119 0 33 10 78 21 100 25 22 5 51 13 65 18 14 5
57 13 95 17 l71 7 13 -64 c14 -67 72 -250 95 -302 52 -114 58 -150 52 -283 -3
-70 -10 -159 -16 -198 -12 -85 -27 -273 -36 -452 l-7 -133 70 0 71 0 6 92 c23
338 40 491 67 605 34 147 21 247 -52 373 -11 19 -38 78 -50 108 -5 12 -13 32
-19 45 -13 29 -40 131 -49 184 -6 35 -5 44 8 47 34 10 343 18 433 11 l95 -7
23 -51 c32 -69 90 -129 158 -164 54 -26 64 -28 172 -26 63 1 210 3 325 5 l210
3 65 35 c36 19 94 64 130 99 90 89 112 101 190 101 113 0 326 -22 345 -36 18
-13 17 -18 -9 -121 -15 -60 -31 -121 -36 -138 -60 -206 -62 -218 -56 -295 5
-71 14 -126 35 -215 25 -103 32 -134 42 -190 16 -95 28 -210 35 -343 l7 -123
71 3 c86 4 83 -6 67 198 -15 186 -31 287 -72 475 -28 125 -34 168 -33 245 0
47 5 108 12 135 7 28 17 66 22 85 5 19 18 78 29 130 29 139 25 133 85 125 28
-3 84 -17 123 -30 40 -14 92 -28 115 -31 l43 -7 -19 21 c-21 24 -97 56 -201
83 -130 33 -116 15 -113 148 l3 116 75 3 c79 2 131 19 108 34 -7 4 -52 8 -99
8 l-86 0 -6 60 c-14 126 15 226 104 360 34 52 84 146 107 200 34 81 40 186 18
290 -23 108 -49 164 -128 282 -59 87 -113 139 -178 173 -43 23 -159 26 -210 5
-50 -20 -140 -90 -184 -144 -20 -25 -47 -48 -60 -52 -12 -3 -65 8 -117 24
-164 52 -307 72 -509 72 -193 0 -406 -29 -545 -75 -145 -47 -150 -46 -222 48
-26 34 -55 68 -65 75 -9 7 -24 19 -32 27 -45 46 -164 67 -228 42z m2130 -117
c40 -25 69 -53 102 -100 13 -19 27 -37 30 -40 3 -3 11 -16 18 -29 8 -13 22
-38 31 -55 44 -78 65 -159 65 -251 -1 -82 -4 -96 -37 -165 -38 -81 -65 -126
-84 -148 -7 -7 -13 -17 -13 -22 0 -5 -6 -15 -13 -22 -23 -23 -68 -124 -82
-184 -8 -33 -14 -90 -15 -129 0 -38 -3 -86 -6 -106 -7 -39 -3 -37 -184 -69
-36 -6 -85 -16 -110 -20 -25 -5 -72 -14 -105 -20 -178 -32 -248 -54 -284 -88
-12 -12 -12 -15 0 -23 14 -9 81 -3 109 11 13 6 117 34 220 60 102 25 213 46
293 55 l58 7 -3 -94 c-3 -86 -4 -93 -23 -91 -11 2 -102 7 -203 12 -100 6 -187
13 -192 16 -6 3 -10 17 -10 31 0 38 -33 31 -49 -11 l-12 -35 -80 0 c-86 0
-139 -18 -139 -47 0 -14 11 -15 80 -10 90 6 100 -2 49 -43 -17 -14 -37 -30
-43 -37 -7 -6 -37 -24 -67 -40 -47 -24 -67 -28 -155 -31 -100 -4 -100 -4 -133
27 -18 17 -30 34 -27 39 2 4 31 21 63 37 87 44 107 68 107 127 0 38 -5 54 -25
73 -37 37 -123 65 -200 65 -162 0 -261 -78 -214 -170 14 -26 61 -63 150 -115
16 -10 15 -13 -10 -43 -40 -48 -118 -68 -199 -52 -33 7 -80 22 -104 33 -46 21
-112 81 -112 102 0 7 -3 21 -6 29 -6 15 4 16 74 14 85 -3 102 2 82 27 -9 10
-31 15 -74 15 -72 0 -106 18 -106 56 0 37 -44 30 -48 -7 l-3 -26 -242 -7
c-133 -3 -259 -9 -279 -12 l-38 -6 0 111 0 111 41 0 c62 0 217 -26 369 -62 99
-23 115 -28 235 -67 102 -34 175 -48 175 -34 0 22 -44 53 -97 67 -32 9 -87 25
-123 35 -36 11 -76 22 -90 24 -300 62 -362 74 -430 82 -87 9 -85 7 -83 142 3
133 -4 164 -56 243 -70 105 -101 207 -101 330 0 91 42 264 81 335 46 85 67
114 107 155 42 43 47 45 101 44 44 0 65 -6 99 -28 50 -31 129 -111 138 -138 3
-10 10 -18 15 -18 5 0 9 -5 9 -12 0 -19 31 -48 52 -48 10 0 37 9 61 19 51 23
73 31 112 41 17 5 55 15 85 23 115 31 320 57 441 57 41 0 130 -7 199 -15 187
-23 254 -37 355 -75 33 -13 79 -25 102 -27 46 -5 65 8 113 77 29 42 117 133
145 148 33 19 106 14 143 -8z"/>
<path d="M995 3427 c-47 -22 -99 -80 -139 -156 -49 -93 -66 -153 -66 -230 0
-55 6 -77 41 -148 26 -55 48 -87 62 -92 49 -19 49 9 -3 110 -34 68 -40 88 -40
143 0 36 5 78 11 93 17 43 53 117 59 123 3 3 17 21 32 41 32 43 90 73 124 65
14 -4 38 -27 57 -56 30 -47 57 -65 57 -37 0 33 -24 89 -49 116 -35 37 -99 49
-146 28z"/>
<path d="M2967 3417 c-54 -17 -101 -58 -126 -111 -25 -55 -25 -56 -5 -56 9 0
38 23 66 50 43 43 56 50 90 50 45 0 69 -11 107 -48 39 -39 64 -79 91 -145 29
-74 33 -205 7 -252 -24 -43 -22 -67 5 -63 15 2 32 19 48 48 22 40 25 56 25
151 0 93 -3 111 -25 155 -14 27 -28 51 -32 52 -5 2 -8 9 -8 16 0 21 -98 123
-133 139 -51 24 -70 26 -110 14z"/>
<path d="M2522 2628 c-85 -41 -150 -129 -135 -185 15 -62 133 -153 197 -153
28 0 69 44 91 97 18 42 20 165 3 196 -21 39 -61 67 -95 67 -10 -1 -37 -10 -61
-22z"/>
<path d="M1452 2600 c-60 -25 -92 -85 -92 -176 0 -67 21 -126 55 -154 24 -20
113 -18 152 3 44 24 111 90 118 119 13 51 -59 152 -139 197 -40 23 -59 25 -94
11z"/>
</g>
</svg>
